HIERARCHY
ROOT Hips
{
	OFFSET 0.000000 35.082581 0.000000
	CHANNELS 6 Xposition Yposition Zposition Xrotation Yrotation Zrotation 
	JOINT Spine
	{
		OFFSET 0.000000 6.876099 0.125700
		CHANNELS 3 Xrotation Yrotation Zrotation
		JOINT Spine1
		{
			OFFSET 0.000000 5.730043 0.104720
			CHANNELS 3 Xrotation Yrotation Zrotation
			JOINT Spine1_split
			{
				OFFSET 0.000000 5.730043 0.104720
				CHANNELS 3 Xrotation Yrotation Zrotation
				JOINT Spine2
				{
					OFFSET 0.000000 5.730043 0.104720
					CHANNELS 3 Xrotation Yrotation Zrotation
					JOINT Neck
					{
						OFFSET 0.000000 10.314075 0.188496
						CHANNELS 3 Xrotation Yrotation Zrotation
						JOINT Head
						{
							OFFSET 0.000000 7.643700 -2.377400
							CHANNELS 3 Xrotation Yrotation Zrotation
							JOINT HeadTop_End
							{
								OFFSET 0.000000 43.788605 -13.619600
								CHANNELS 3 Xrotation Yrotation Zrotation
								End Site
								{
									OFFSET 0.000000 0.000000 0.000000
								}
							}
						}
					}
					JOINT LeftShoulder
					{
						OFFSET 2.196100 4.412489 0.087492
						CHANNELS 3 Xrotation Yrotation Zrotation
						JOINT LeftShoulder_split
						{
							OFFSET 2.196100 4.412489 0.087492
							CHANNELS 3 Xrotation Yrotation Zrotation
							JOINT LeftArm
							{
								OFFSET 8.771219 -2.981674 -0.026999
								CHANNELS 3 Xrotation Yrotation Zrotation
								JOINT LeftForeArm
								{
									OFFSET 8.512804 0.000000 -0.000000
									CHANNELS 3 Xrotation Yrotation Zrotation
									JOINT LeftHand
									{
										OFFSET 18.484802 0.000000 -0.000000
										CHANNELS 3 Xrotation Yrotation Zrotation
										JOINT LeftHandThumb1
										{
											OFFSET 2.499420 -1.158070 2.653252
											CHANNELS 3 Xrotation Yrotation Zrotation
											JOINT LeftHandThumb2
											{
												OFFSET 2.370079 -1.368366 1.368366
												CHANNELS 3 Xrotation Yrotation Zrotation
												JOINT LeftHandThumb3
												{
													OFFSET 2.676727 -1.545410 1.545409
													CHANNELS 3 Xrotation Yrotation Zrotation
													JOINT LeftHandThumb4
													{
														OFFSET 1.692226 -0.977005 0.977007
														CHANNELS 3 Xrotation Yrotation Zrotation
														End Site
														{
															OFFSET 0.000000 0.000000 0.000000
														}
													}
												}
											}
										}
										JOINT LeftHandIndex1
										{
											OFFSET 7.924831 -0.457527 2.345128
											CHANNELS 3 Xrotation Yrotation Zrotation
											JOINT LeftHandIndex2
											{
												OFFSET 3.643303 0.000000 0.000000
												CHANNELS 3 Xrotation Yrotation Zrotation
												JOINT LeftHandIndex3
												{
													OFFSET 3.810799 0.000000 0.000000
													CHANNELS 3 Xrotation Yrotation Zrotation
													JOINT LeftHandIndex4
													{
														OFFSET 2.403702 0.000000 0.000000
														CHANNELS 3 Xrotation Yrotation Zrotation
														End Site
														{
															OFFSET 0.000000 0.000000 0.000000
														}
													}
												}
											}
										}
										JOINT LeftHandMiddle1
										{
											OFFSET 8.563995 0.000000 -0.000000
											CHANNELS 3 Xrotation Yrotation Zrotation
											JOINT LeftHandMiddle2
											{
												OFFSET 3.861618 0.000000 0.000000
												CHANNELS 3 Xrotation Yrotation Zrotation
												JOINT LeftHandMiddle3
												{
													OFFSET 3.701603 0.000000 0.000000
													CHANNELS 3 Xrotation Yrotation Zrotation
													JOINT LeftHandMiddle4
													{
														OFFSET 2.322544 0.000000 0.000000
														CHANNELS 3 Xrotation Yrotation Zrotation
														End Site
														{
															OFFSET 0.000000 0.000000 0.000000
														}
													}
												}
											}
										}
										JOINT LeftHandRing1
										{
											OFFSET 8.426460 -0.424637 -3.286992
											CHANNELS 3 Xrotation Yrotation Zrotation
											JOINT LeftHandRing2
											{
												OFFSET 3.126408 0.000000 0.000000
												CHANNELS 3 Xrotation Yrotation Zrotation
												JOINT LeftHandRing3
												{
													OFFSET 3.085026 0.000000 0.000000
													CHANNELS 3 Xrotation Yrotation Zrotation
													JOINT LeftHandRing4
													{
														OFFSET 1.644005 0.000000 0.000000
														CHANNELS 3 Xrotation Yrotation Zrotation
														End Site
														{
															OFFSET 0.000000 0.000000 0.000000
														}
													}
												}
											}
										}
									}
								}
							}
						}
					}
					JOINT RightShoulder
					{
						OFFSET -2.196100 4.412496 0.070690
						CHANNELS 3 Xrotation Yrotation Zrotation
						JOINT RightShoulder_split
						{
							OFFSET -2.196100 4.412496 0.070690
							CHANNELS 3 Xrotation Yrotation Zrotation
							JOINT RightArm
							{
								OFFSET -8.771282 -2.981682 -0.094208
								CHANNELS 3 Xrotation Yrotation Zrotation
								JOINT RightForeArm
								{
									OFFSET -8.494598 0.000000 0.000000
									CHANNELS 3 Xrotation Yrotation Zrotation
									JOINT RightHand
									{
										OFFSET -18.483803 0.000000 0.000001
										CHANNELS 3 Xrotation Yrotation Zrotation
										JOINT RightHandThumb1
										{
											OFFSET -2.527351 -1.008072 2.575253
											CHANNELS 3 Xrotation Yrotation Zrotation
											JOINT RightHandThumb2
											{
												OFFSET -2.321518 -1.340328 1.340329
												CHANNELS 3 Xrotation Yrotation Zrotation
												JOINT RightHandThumb3
												{
													OFFSET -2.657753 -1.534454 1.534455
													CHANNELS 3 Xrotation Yrotation Zrotation
													JOINT RightHandThumb4
													{
														OFFSET -1.807510 -1.043568 1.043567
														CHANNELS 3 Xrotation Yrotation Zrotation
														End Site
														{
															OFFSET 0.000000 0.000000 0.000000
														}
													}
												}
											}
										}
										JOINT RightHandIndex1
										{
											OFFSET -8.811420 0.015533 2.887987
											CHANNELS 3 Xrotation Yrotation Zrotation
											JOINT RightHandIndex2
											{
												OFFSET -3.537502 0.000000 0.000000
												CHANNELS 3 Xrotation Yrotation Zrotation
												JOINT RightHandIndex3
												{
													OFFSET -3.356201 0.000000 0.000000
													CHANNELS 3 Xrotation Yrotation Zrotation
													JOINT RightHandIndex4
													{
														OFFSET -1.933098 0.000000 0.000000
														CHANNELS 3 Xrotation Yrotation Zrotation
														End Site
														{
															OFFSET 0.000000 0.000000 0.000000
														}
													}
												}
											}
										}
										JOINT RightHandMiddle1
										{
											OFFSET -8.178135 0.000000 0.000000
											CHANNELS 3 Xrotation Yrotation Zrotation
											JOINT RightHandMiddle2
											{
												OFFSET -3.901302 0.000000 0.000000
												CHANNELS 3 Xrotation Yrotation Zrotation
												JOINT RightHandMiddle3
												{
													OFFSET -3.909599 0.000000 0.000000
													CHANNELS 3 Xrotation Yrotation Zrotation
													JOINT RightHandMiddle4
													{
														OFFSET -2.376003 0.000000 0.000000
														CHANNELS 3 Xrotation Yrotation Zrotation
														End Site
														{
															OFFSET 0.000000 0.000000 0.000000
														}
													}
												}
											}
										}
										JOINT RightHandRing1
										{
											OFFSET -7.559013 0.014137 -2.865403
											CHANNELS 3 Xrotation Yrotation Zrotation
											JOINT RightHandRing2
											{
												OFFSET -3.449306 0.000000 0.000000
												CHANNELS 3 Xrotation Yrotation Zrotation
												JOINT RightHandRing3
												{
													OFFSET -3.362106 0.000000 0.000000
													CHANNELS 3 Xrotation Yrotation Zrotation
													JOINT RightHandRing4
													{
														OFFSET -2.076401 0.000000 0.000000
														CHANNELS 3 Xrotation Yrotation Zrotation
														End Site
														{
															OFFSET 0.000000 0.000000 0.000000
														}
													}
												}
											}
										}
									}
								}
							}
						}
					}
				}
			}
		}
	}
	JOINT LeftUpLeg
	{
		OFFSET 10.205400 -3.823500 0.155100
		CHANNELS 3 Xrotation Yrotation Zrotation
		JOINT LeftLeg
		{
			OFFSET 0.708757 -12.982077 0.567790
			CHANNELS 3 Xrotation Yrotation Zrotation
			JOINT LeftFoot
			{
				OFFSET -0.708756 -10.717838 -2.184338
				CHANNELS 3 Xrotation Yrotation Zrotation
				JOINT LeftToeBase
				{
					OFFSET 0.108149 -7.191104 7.560241
					CHANNELS 3 Xrotation Yrotation Zrotation
					JOINT LeftToe_End
					{
						OFFSET 0.070230 0.081724 4.490308
						CHANNELS 3 Xrotation Yrotation Zrotation
						End Site
						{
							OFFSET 0.000000 0.000000 0.000000
						}
					}
				}
			}
		}
	}
	JOINT RightUpLeg
	{
		OFFSET -10.205400 -3.823500 0.005500
		CHANNELS 3 Xrotation Yrotation Zrotation
		JOINT RightLeg
		{
			OFFSET -0.708756 -12.982134 0.610632
			CHANNELS 3 Xrotation Yrotation Zrotation
			JOINT RightFoot
			{
				OFFSET 0.708754 -10.717769 -1.945823
				CHANNELS 3 Xrotation Yrotation Zrotation
				JOINT RightToeBase
				{
					OFFSET -0.108140 -7.191069 7.372968
					CHANNELS 3 Xrotation Yrotation Zrotation
					JOINT RightToe_End
					{
						OFFSET -0.070227 0.081735 4.479403
						CHANNELS 3 Xrotation Yrotation Zrotation
						End Site
						{
							OFFSET 0.000000 0.000000 0.000000
						}
					}
				}
			}
		}
	}
}
MOTION
Frames: 4
Frame Time: 0.016667
1.406904 31.602779 1.077036 26.303943 11.491937 1.688947 11.257091 -1.083315 1.061227 9.276076 2.486269 -1.078450 0.000000 0.000000 0.000000 9.399710 1.253084 -3.812949 -9.096162 7.493528 -0.883474 -27.171302 1.769071 -6.727665 0.000001 -0.000000 -0.000000 0.803797 0.857155 -9.303993 0.000000 0.000000 0.000000 -29.535893 -3.682394 -62.075116 0.000004 -41.672787 0.000007 20.410309 8.999541 -6.096366 -6.000727 -6.126818 4.616746 7.450095 23.644291 2.310976 -5.513982 12.822073 16.414973 -0.000003 -0.000001 -0.000002 1.311408 -4.551196 -15.849338 1.142346 3.477102 -36.365143 0.160118 1.361746 -13.413060 -0.000001 -0.000001 -0.000001 0.477003 4.520330 -21.613206 1.655963 4.082395 -44.144459 0.160126 1.361748 -13.413044 0.000002 -0.000001 0.000002 2.993446 9.713624 -25.720720 1.694440 4.121562 -44.682213 1.655861 4.082274 -44.142860 -0.000003 -0.000001 0.000001 5.720890 24.427845 1.421178 0.000000 0.000000 0.000000 -24.663782 -14.041406 65.136441 -0.000002 37.034279 0.000001 11.717744 14.064656 -10.776510 -5.141695 1.887954 -6.280707 7.832908 -27.003880 -3.053124 -4.392065 -14.643034 -16.623680 -0.000001 -0.000001 0.000002 9.420641 2.591778 6.997318 0.448786 -1.996468 25.335321 0.448792 -1.996463 25.335298 -0.000000 -0.000003 -0.000003 0.141883 -3.212526 11.503912 0.448782 -1.996458 25.335323 0.448790 -1.996474 25.335309 -0.000000 0.000001 -0.000003 1.475380 -6.489811 23.742059 0.450096 -1.999233 25.372809 0.448779 -1.996464 25.335443 -0.000000 -0.000001 0.000004 -29.047268 10.913059 12.798906 40.013693 6.039739 -5.899976 -6.950608 25.890802 -20.048840 -9.277680 0.485221 -5.734687 -0.000000 -0.000002 -0.000000 -72.700329 -8.792228 -14.796997 52.380803 4.665101 -5.129335 -5.908167 -10.795097 2.307021 -1.468176 0.000017 -0.000245 0.000000 0.000000 -0.000000 
1.312313 32.100685 1.805506 26.228550 11.828135 1.922996 10.879817 -0.617854 1.107163 9.270629 2.730511 -1.057021 0.000000 0.000000 0.000000 9.403926 1.489585 -3.792871 -9.298700 7.419091 -1.033891 -26.919041 0.659608 -7.172825 0.000001 0.000001 -0.000001 0.819689 0.837065 -9.277612 0.000000 0.000000 0.000000 -28.935721 -1.468105 -61.169774 0.000000 -41.886651 0.000001 28.314179 8.850547 -10.911703 -6.000716 -6.126809 4.616757 7.450095 23.644293 2.310977 -5.513977 12.822075 16.414973 -0.000001 -0.000003 -0.000000 1.332680 -4.478269 -16.588790 1.170429 3.514859 -36.825655 0.167641 1.392793 -13.724866 0.000001 -0.000004 0.000000 0.494541 4.563976 -22.073430 1.678342 4.105249 -44.457677 0.165538 1.384214 -13.638512 0.000002 -0.000000 0.000005 3.034011 9.729426 -26.036568 1.710885 4.138081 -44.910755 1.668060 4.094783 -44.314039 0.000001 -0.000001 -0.000000 5.725894 24.411900 1.390789 0.000000 0.000000 0.000000 -24.662573 -15.375726 64.479971 0.000003 37.223192 -0.000019 10.068257 13.567041 -10.840911 -5.210774 2.102431 -6.162656 7.832916 -27.003884 -3.053126 -4.360936 -14.936024 -16.682860 -0.000001 -0.000002 -0.000003 9.420637 2.591783 6.997313 0.458708 -2.017279 25.618884 0.458741 -2.017340 25.619379 -0.000001 -0.000001 0.000004 0.144101 -3.223365 11.639864 0.454453 -2.008368 25.497134 0.453277 -2.005916 25.464041 0.000000 -0.000000 -0.000001 1.483108 -6.495711 23.847385 0.454603 -2.008682 25.501526 0.452444 -2.004169 25.440132 0.000003 -0.000000 -0.000001 -29.722453 10.974652 11.374258 35.847244 6.213203 -5.609891 -3.640467 26.603995 -20.906671 -9.099568 0.409709 -4.312111 0.000000 -0.000003 0.000000 -69.429658 -9.249718 -14.687429 50.519989 4.878729 -5.103941 -7.292155 -11.312909 2.330660 -1.456875 0.000017 -0.000219 0.000000 -0.000001 0.000000 
1.312249 32.545586 2.657986 26.043819 12.390691 2.077994 10.463157 -0.012774 1.246600 9.248249 2.964293 -0.996378 0.000000 0.000000 0.000000 9.387531 1.751389 -3.651130 -9.472134 7.196015 -1.232977 -26.658554 -0.579032 -7.669384 -0.000000 -0.000000 0.000000 0.864101 0.779460 -9.201055 0.000000 0.000000 0.000000 -27.914298 0.938287 -60.038510 -0.000003 -42.148872 -0.000018 33.782819 8.315927 -15.356975 -6.000719 -6.126809 4.616730 7.450099 23.644291 2.310981 -5.513979 12.822076 16.414971 -0.000001 0.000000 0.000001 1.391899 -4.291526 -18.495567 1.247168 3.614892 -38.060068 0.189058 1.477697 -14.579807 0.000000 0.000001 -0.000001 0.543324 4.680224 -23.306993 1.740279 4.167284 -45.316574 0.181037 1.446569 -14.266126 -0.000001 -0.000001 -0.000001 3.145652 9.771631 -26.902664 1.757053 4.183748 -45.546959 1.702600 4.129783 -44.795772 0.000002 0.000000 -0.000001 5.738796 24.365530 1.303477 0.000000 0.000000 0.000000 -24.740730 -16.700519 63.463270 -0.000001 37.406504 -0.000010 8.192581 12.947377 -10.997476 -5.403162 2.694648 -5.834606 7.832918 -27.003884 -3.053124 -4.276262 -15.746243 -16.846025 0.000004 -0.000002 -0.000002 9.420633 2.591778 6.997324 0.486713 -2.074616 26.402883 0.486778 -2.074765 26.404765 0.000003 -0.000000 -0.000001 0.150470 -3.253682 12.020581 0.470599 -2.041891 25.954586 0.466195 -2.032799 25.830425 -0.000002 0.000000 0.000001 1.505068 -6.512323 24.145047 0.467515 -2.035553 25.867899 0.462980 -2.026148 25.739744 -0.000002 0.000002 0.000000 -30.284724 10.980443 10.169912 33.128323 6.007356 -5.509092 -1.822840 27.941532 -21.838703 -6.762002 0.108975 -1.656258 0.000001 -0.000003 0.000000 -65.882140 -9.763707 -14.972533 49.096653 4.883869 -5.047923 -9.272411 -11.641817 2.615182 -1.443092 0.000007 -0.000229 0.000000 0.000000 -0.000000 
1.326523 32.964439 3.515779 25.761156 13.179856 2.178809 10.118922 0.694040 1.448106 9.210896 3.190161 -0.903507 0.000000 0.000000 0.000000 9.351837 2.036274 -3.375823 -9.624991 6.855374 -1.477747 -26.488030 -1.955148 -8.210936 0.000000 0.000002 0.000000 0.932227 0.688376 -9.075492 0.000000 0.000000 0.000000 -26.479341 3.102016 -58.698434 -0.000012 -42.443007 0.000000 35.621479 7.717613 -18.708706 -6.000740 -6.126821 4.616731 7.450096 23.644290 2.310976 -5.513981 12.822073 16.414973 -0.000003 0.000001 -0.000002 1.482810 -4.039556 -21.102390 1.362105 3.756761 -39.847679 0.223404 1.603937 -15.857339 -0.000001 -0.000004 -0.000001 0.618329 4.846627 -25.093441 1.834580 4.258233 -46.600079 0.205984 1.541338 -15.222875 0.000002 -0.000001 0.000002 3.311805 9.828191 -28.197188 1.828378 4.252404 -46.516795 1.756582 4.183282 -45.540375 -0.000000 -0.000002 -0.000000 5.756319 24.290984 1.165177 0.000000 0.000000 0.000000 -24.886561 -18.127302 62.390144 0.000016 37.716694 -0.000022 6.128166 12.171681 -11.084197 -5.697788 3.587367 -5.334407 7.832914 -27.003880 -3.053127 -4.152277 -16.970602 -17.091433 0.000001 0.000001 -0.000003 9.420637 2.591784 6.997320 0.530467 -2.160490 27.587346 0.530620 -2.160753 27.591307 -0.000000 -0.000002 0.000002 0.160636 -3.300171 12.605207 0.496243 -2.093732 26.665374 0.486788 -2.074752 26.404775 -0.000000 -0.000003 -0.000003 1.539350 -6.537915 24.607531 0.488139 -2.077487 26.442256 0.479831 -2.060738 26.212581 0.000000 -0.000002 0.000003 -31.008796 10.930470 9.046196 30.495958 5.326178 -5.445237 0.298896 29.949464 -22.596153 -4.137589 -0.020173 0.728579 -0.000000 -0.000003 0.000000 -62.135788 -10.465492 -15.367372 47.572729 5.124759 -4.984381 -11.263577 -12.280286 2.875995 -1.427848 0.000017 -0.000237 0.000000 -0.000000 0.000000 
